<?xml version="1.0" standalone="no"?>
<!DOCTYPE svg PUBLIC "-//W3C//DTD SVG 20010904//EN"
 "http://www.w3.org/TR/2001/REC-SVG-20010904/DTD/svg10.dtd">
<svg version="1.0" xmlns="http://www.w3.org/2000/svg"
 width="24.000000pt" height="24.000000pt" viewBox="0 0 576.000000 576.000000"
 preserveAspectRatio="xMidYMid meet">

<g transform="translate(0.000000,576.000000) scale(0.100000,-0.100000)"
fill="#000000" stroke="none">
<path d="M2 2883 l-2 -2883 1055 0 1055 0 0 124 c0 98 3 126 15 136 8 7 16 30
16 54 l1 41 9 -40 c4 -22 8 -102 8 -177 l1 -138 461 0 460 0 56 118 c30 64 59
128 64 141 9 22 11 23 28 7 9 -9 23 -16 29 -16 7 0 12 -2 12 -4 0 -7 -67 -160
-89 -204 l-21 -42 1109 0 1109 0 52 76 c57 82 56 74 30 214 -5 30 -16 143 -25
250 -18 242 -25 309 -36 338 -13 34 0 47 22 23 11 -12 24 -21 30 -21 20 0 97
71 103 94 4 16 18 26 46 35 31 9 45 20 57 46 11 24 24 35 42 37 19 2 28 11 35
36 5 17 13 32 17 32 5 0 9 25 9 56 0 57 -13 65 -30 18 -6 -14 -18 -24 -29 -24
-28 0 -36 -18 -16 -40 23 -26 10 -45 -18 -25 -28 19 -57 19 -57 0 0 -9 -8 -18
-17 -22 -30 -10 -53 -35 -53 -56 0 -16 -5 -18 -25 -13 -29 7 -46 -17 -26 -37
6 -6 11 -18 11 -26 0 -12 -3 -11 -18 2 -10 10 -24 17 -30 17 -15 0 -16 -36 -2
-45 6 -3 10 -11 10 -16 0 -5 -11 -2 -25 7 -13 8 -32 13 -42 10 -14 -5 -23 5
-42 47 -40 87 -199 238 -318 302 -29 15 -70 47 -92 70 l-40 43 38 16 c21 10
51 28 67 41 l29 24 -93 -24 c-107 -29 -177 -34 -104 -8 23 8 42 19 42 23 0 5
-38 6 -84 3 -120 -8 -186 9 -186 50 0 8 3 8 8 2 12 -17 60 -38 71 -31 8 5 7
13 -3 28 -11 16 -12 26 -3 45 8 19 8 26 -1 32 -9 5 -10 15 -4 30 8 23 9 23 42
-13 34 -36 70 -48 70 -23 0 16 -82 97 -98 97 -7 0 -12 -7 -12 -16 0 -8 -5 -12
-10 -9 -7 4 -9 31 -6 68 3 34 5 103 6 152 2 76 3 85 11 56 6 -18 13 -30 16
-27 6 6 25 251 24 316 0 19 0 47 0 62 -1 14 10 56 24 92 14 37 25 73 25 82 0
8 10 34 22 57 17 34 22 61 23 138 1 52 6 102 11 110 11 17 11 12 13 185 l1
142 26 6 c25 7 25 8 10 31 -22 34 -21 35 24 35 46 0 80 27 80 63 0 74 -103 84
-130 12 -5 -14 -10 1 -15 50 -4 39 -13 102 -20 140 -47 248 -60 310 -81 400
-51 217 -104 395 -150 507 -13 32 -24 72 -24 90 0 17 -8 41 -19 52 -10 12 -56
95 -102 186 -45 91 -91 176 -101 190 -10 14 -49 68 -85 120 -164 235 -291 337
-503 403 -143 44 -138 44 -299 -3 -53 -15 -81 -18 -100 -12 -16 6 -34 5 -48
-1 -18 -8 -29 -4 -60 20 -21 16 -73 47 -117 68 -101 50 -199 59 -297 27 -35
-11 -91 -28 -124 -38 -74 -22 -321 -144 -395 -196 -30 -21 -64 -44 -75 -51
-48 -29 -243 -238 -319 -342 -162 -219 -321 -525 -371 -715 -9 -36 -30 -112
-46 -170 -15 -58 -36 -145 -45 -195 -14 -79 -37 -426 -37 -557 0 -42 -2 -46
-18 -38 -26 15 -50 12 -71 -7 -14 -13 -21 -14 -30 -5 -16 16 -38 15 -38 -2 0
-14 103 -116 118 -116 23 0 20 16 -9 46 -32 34 -34 64 -4 64 24 0 74 -60 84
-100 5 -19 16 -64 25 -100 8 -36 22 -92 30 -125 8 -33 20 -89 25 -125 19 -119
60 -334 77 -405 38 -161 23 -327 -34 -387 -21 -23 -23 -28 -9 -28 23 0 21 -15
-5 -50 -17 -23 -30 -30 -56 -30 -25 0 -33 4 -29 14 4 10 0 12 -13 9 -23 -6
-48 -33 -31 -33 6 0 11 -9 11 -20 0 -11 5 -20 10 -20 6 0 10 -8 10 -17 0 -26
-96 -88 -159 -103 -34 -8 -55 -19 -58 -29 -7 -28 -88 -46 -200 -46 -57 0 -103
-3 -103 -7 0 -4 12 -16 26 -27 19 -15 41 -21 75 -21 27 0 49 -4 49 -9 0 -5
-26 -18 -57 -29 -78 -27 -278 -100 -328 -118 -86 -33 -205 -73 -303 -103 -56
-18 -108 -39 -115 -48 -28 -36 -73 -76 -121 -108 -28 -19 -71 -54 -96 -79 -24
-25 -48 -46 -53 -46 -4 0 -7 152 -6 337 1 289 3 340 17 361 14 21 14 27 1 45
-12 19 -15 311 -19 2022 l-5 2000 -3 -2882z m3758 1267 c0 -11 -4 -20 -10 -20
-5 0 -10 9 -10 20 0 11 5 20 10 20 6 0 10 -9 10 -20z m-40 -161 c0 -43 8 -53
28 -37 11 10 18 8 32 -9 19 -24 27 -71 41 -253 5 -69 12 -150 15 -181 l6 -56
-63 -6 c-35 -3 -75 -4 -89 -2 -14 2 -30 4 -37 4 -19 2 -25 98 -14 226 6 66 13
174 16 240 2 68 9 121 15 123 5 2 10 31 11 65 l1 62 19 -70 c10 -38 19 -86 19
-106z m-285 76 c4 -46 4 -101 0 -122 -3 -21 -9 -71 -12 -110 -2 -40 -8 -73
-13 -73 -5 0 -10 51 -12 113 -3 118 10 277 23 277 4 0 10 -38 14 -85z m-85 15
c14 0 22 -33 26 -107 2 -41 0 -74 -6 -78 -6 -4 -10 13 -11 42 -1 44 -3 41 -14
-32 -8 -44 -14 -105 -15 -135 0 -30 -7 -68 -15 -85 l-13 -30 -1 35 c-1 133 28
468 37 413 2 -13 7 -23 12 -23z m208 -120 c-16 -148 -28 -178 -22 -55 3 61 8
126 11 145 12 67 20 -1 11 -90z m-308 -140 c-13 -156 -22 -199 -28 -135 -5 44
15 316 26 355 13 49 14 -72 2 -220z m-167 21 c-6 -118 -25 -207 -36 -171 -13
37 -15 111 -6 165 5 33 12 76 15 95 9 58 14 67 24 50 5 -8 6 -70 3 -139z m104
-13 c-2 -18 -4 -6 -4 27 0 33 2 48 4 33 2 -15 2 -42 0 -60z m278 -75 c-8 -64
-15 -143 -15 -175 0 -35 -4 -58 -11 -58 -6 0 -10 15 -8 38 2 20 -1 63 -5 96
-7 50 -6 60 8 68 10 6 16 22 16 46 0 20 3 61 7 91 5 43 8 50 14 33 5 -12 2
-74 -6 -139z m-629 120 c-4 -16 -11 -61 -16 -102 -11 -87 -18 -97 -57 -84 -21
8 -27 16 -26 32 4 27 54 131 64 131 4 0 10 11 13 25 4 14 11 25 17 25 7 0 9
-10 5 -27z m-1118 -75 c-2 -6 -10 -14 -16 -16 -7 -2 -10 2 -6 12 7 18 28 22
22 4z m990 -35 c-15 -35 -26 -48 -34 -41 -10 10 26 67 43 68 2 0 -3 -12 -9
-27z m661 1 c12 8 5 -124 -7 -136 -19 -19 -25 15 -17 90 4 37 10 61 12 54 3
-6 8 -10 12 -8z m181 -51 c0 -70 -12 -109 -23 -79 -9 22 4 146 14 146 5 0 9
-30 9 -67z m-1810 41 c0 -17 -14 -18 -28 -1 -8 10 -6 13 9 14 10 1 19 -5 19
-13z m1344 -190 c13 -34 4 -104 -14 -104 -12 0 -23 75 -15 100 8 24 21 26 29
4z m268 -29 c-6 -34 -12 -32 -12 6 0 16 4 28 9 25 4 -3 6 -17 3 -31z m-693 -2
c8 -15 12 -16 35 -3 18 9 30 10 37 3 14 -14 0 -113 -18 -120 -7 -3 -41 0 -76
5 -34 6 -112 16 -173 23 -100 11 -120 10 -185 -6 -95 -23 -119 -34 -119 -57 0
-24 55 -74 103 -94 20 -9 37 -19 37 -23 0 -11 47 -31 70 -31 27 0 25 16 -5 44
-36 33 -32 53 13 65 51 15 52 15 52 -19 0 -58 57 -130 101 -130 11 0 19 -6 19
-14 0 -10 26 -15 108 -18 59 -3 113 -3 120 0 15 5 13 81 -2 114 -12 26 31 43
77 30 32 -9 37 -8 52 14 19 29 48 31 104 5 51 -22 90 -17 92 13 2 20 2 20 6
-1 2 -13 11 -23 19 -23 9 0 42 -23 74 -51 32 -28 65 -51 73 -53 8 -1 28 -14
45 -28 26 -21 38 -25 70 -21 39 5 67 -11 45 -26 -13 -8 -25 -102 -15 -117 4
-6 66 -26 139 -45 72 -18 130 -36 127 -40 -7 -12 26 -19 87 -19 38 0 58 -4 54
-10 -3 -6 4 -10 17 -10 19 0 20 -2 8 -11 -31 -22 36 2 120 44 76 37 105 44
119 31 3 -2 6 -32 7 -67 2 -47 -2 -69 -17 -93 -10 -17 -19 -49 -19 -71 0 -39
-25 -118 -57 -178 -9 -16 -30 -56 -46 -87 -16 -31 -49 -78 -73 -105 -24 -26
-44 -52 -44 -58 0 -6 -10 -21 -22 -32 -13 -11 -43 -44 -68 -73 -25 -29 -51
-59 -57 -66 -7 -7 -13 -19 -13 -26 0 -7 -27 -39 -59 -71 -33 -32 -65 -72 -71
-88 -7 -16 -15 -27 -19 -25 -6 4 -133 -113 -158 -147 -7 -9 -13 -22 -13 -30 0
-8 -9 -22 -21 -33 -12 -10 -28 -31 -35 -47 -8 -15 -19 -25 -24 -22 -5 3 -39
-24 -75 -60 -36 -36 -69 -63 -74 -61 -5 3 -20 -5 -34 -18 -13 -13 -40 -32 -58
-43 -47 -28 -236 -86 -256 -79 -9 4 -25 4 -36 0 -20 -6 -20 -7 -2 -20 29 -21
129 -17 230 11 132 35 154 42 188 62 40 23 77 19 77 -8 0 -10 -5 -19 -11 -19
-10 0 -9 -16 5 -70 3 -8 5 -18 5 -23 2 -14 116 5 137 24 11 10 44 71 74 134
30 63 58 115 62 115 29 0 -27 -204 -85 -310 -121 -221 -259 -388 -369 -445
-56 -29 -58 -30 -58 -11 0 8 -5 18 -11 21 -14 9 -69 -15 -69 -30 0 -7 -7 -15
-15 -19 -8 -3 -15 -16 -15 -30 0 -28 -21 -47 -29 -25 -2 7 -17 27 -33 43 -25
25 -33 28 -66 21 -20 -4 -58 -6 -84 -6 -42 2 -47 -1 -56 -26 l-10 -28 -10 26
c-8 20 -19 28 -46 31 -20 2 -36 1 -36 -3 0 -4 -15 -2 -34 3 -37 12 -96 -4 -96
-25 0 -6 -12 0 -26 14 -14 13 -27 23 -30 22 -17 -11 -43 0 -46 20 -2 18 -9 22
-38 22 l-35 0 -3 -77 c-2 -43 -6 -78 -10 -78 -19 1 -31 19 -34 55 -3 38 -5 40
-40 43 l-38 3 -1 -63 c0 -71 -17 -54 -18 20 -1 39 -3 42 -28 42 -19 0 -46 20
-105 78 -43 42 -80 85 -84 94 -3 10 -11 24 -17 30 -12 13 -48 66 -79 118 -39
64 -118 263 -118 298 0 23 33 12 66 -23 36 -39 57 -80 94 -190 13 -38 31 -80
40 -91 24 -32 192 -186 197 -180 6 6 -15 45 -38 70 -11 11 -19 28 -19 38 0 10
-6 18 -12 18 -7 0 -21 12 -31 26 -18 24 -18 25 1 57 18 29 20 47 17 182 -3
133 -7 158 -30 220 -45 119 -65 184 -101 340 -33 142 -49 220 -124 630 -48
258 -56 541 -23 734 8 46 28 65 39 36 6 -14 10 -13 32 7 l25 23 -6 -33 c-4
-18 -12 -63 -18 -100 -6 -37 -19 -109 -30 -160 -23 -112 -17 -184 37 -446 48
-235 120 -597 134 -676 31 -176 113 -462 139 -488 10 -9 24 -47 32 -85 7 -37
15 -63 18 -59 8 12 81 2 81 -11 0 -6 11 0 26 13 22 21 24 29 18 65 -4 22 -9
83 -10 135 -1 52 -5 125 -9 162 -6 53 -4 77 11 118 14 38 15 53 7 58 -7 4 -26
39 -43 77 -17 39 -42 92 -55 118 -77 151 -164 381 -194 512 -36 151 -40 174
-66 384 -2 19 -10 38 -17 43 -10 6 -10 8 0 8 10 0 11 27 6 123 -7 131 7 282
28 317 17 27 107 70 150 71 18 0 60 -2 93 -6 46 -5 77 -1 135 15 41 11 113 29
160 39 47 11 103 26 125 34 56 22 121 22 134 0z m678 -55 c-3 -8 -6 -5 -6 6
-1 11 2 17 5 13 3 -3 4 -12 1 -19z m-233 -90 c5 -21 3 -28 -9 -28 -16 0 -31
43 -20 60 9 15 21 2 29 -32z m136 -10 c0 -9 -4 -20 -10 -23 -6 -4 -10 9 -10
32 0 28 3 34 10 23 5 -8 10 -23 10 -32z m1697 -104 c7 -19 -20 -49 -36 -40
-12 8 -15 39 -4 49 12 12 33 7 40 -9z m-2231 -29 c3 -13 15 -26 27 -29 16 -4
19 -8 10 -17 -8 -8 -16 -8 -33 1 -12 6 -34 8 -52 5 -33 -8 -33 -6 -3 41 21 35
42 34 51 -1z m1069 22 c21 -8 31 -20 33 -37 1 -14 11 -32 22 -42 12 -10 18
-23 14 -33 -8 -19 -36 -15 -94 13 -29 14 -36 24 -41 57 -4 22 -5 43 -2 48 6
10 32 8 68 -6z m-234 -214 c16 -43 7 -52 -40 -40 -23 6 -41 16 -41 22 0 9 48
40 68 44 1 1 7 -11 13 -26z m264 -12 c3 -5 1 -12 -5 -16 -5 -3 -10 1 -10 9 0
18 6 21 15 7z m-5 -46 c0 -17 -30 -35 -57 -35 -15 1 -13 5 10 25 32 28 47 32
47 10z m265 -945 c-6 -27 -54 -153 -90 -235 -21 -49 -82 -205 -109 -280 -14
-39 -54 -127 -89 -195 -35 -69 -96 -197 -136 -285 -40 -88 -77 -167 -82 -175
-5 -8 -20 -36 -34 -62 -13 -26 -29 -49 -34 -53 -11 -6 -51 15 -51 28 0 16 233
472 256 503 22 28 104 185 104 198 0 3 14 35 30 71 17 36 30 67 30 70 0 2 22
50 49 107 70 150 141 313 141 326 0 7 5 12 11 12 7 0 8 -11 4 -30z m536 -353
c-13 -13 -15 21 -3 50 6 15 8 13 10 -11 2 -16 -1 -33 -7 -39z m-731 -781 c0
-3 -4 -8 -10 -11 -5 -3 -10 -1 -10 4 0 6 5 11 10 11 6 0 10 -2 10 -4z m-1600
-119 c0 -32 1 -32 40 -29 35 4 41 1 50 -23 5 -14 10 -49 10 -76 0 -42 -3 -49
-20 -49 -18 0 -20 7 -20 61 0 60 0 60 -27 57 -27 -3 -28 -6 -31 -60 -2 -43 -7
-58 -17 -58 -12 0 -15 20 -15 105 0 87 3 105 15 105 10 0 15 -10 15 -33z
m1028 -75 c3 -97 2 -102 -18 -102 -19 0 -20 6 -20 98 0 54 3 102 7 106 20 19
28 -8 31 -102z m392 49 l5 -53 24 26 c14 14 33 26 44 26 19 0 19 -1 -4 -26
l-24 -26 28 -49 c26 -47 26 -49 7 -49 -13 0 -26 12 -37 35 -20 41 -36 41 -43
-1 -3 -17 -12 -30 -23 -32 -15 -3 -17 7 -17 96 0 54 3 102 7 106 16 16 28 -4
33 -53z m215 39 c0 -8 -8 -16 -17 -18 -13 -2 -18 3 -18 18 0 15 5 20 18 18 9
-2 17 -10 17 -18z m231 4 c-3 -9 -9 -27 -12 -40 -3 -13 -13 -24 -21 -24 -11 0
-13 7 -8 33 9 42 13 47 32 47 10 0 13 -6 9 -16z m49 -16 c-13 -63 -42 -66 -31
-3 4 22 13 35 22 35 12 0 14 -7 9 -32z m-1205 -3 c0 -16 6 -25 15 -25 8 0 15
-7 15 -16 0 -10 -6 -14 -15 -10 -12 4 -15 -4 -15 -44 0 -38 4 -50 15 -50 8 0
15 -7 15 -15 0 -9 -9 -15 -25 -15 -30 0 -50 39 -41 83 4 19 1 30 -9 33 -17 7
-21 34 -5 34 6 0 10 6 10 13 0 14 20 37 32 37 4 0 8 -11 8 -25z m-1251 -77 c9
-26 19 -49 22 -53 4 -3 15 19 24 49 13 41 23 56 36 56 16 0 14 -11 -18 -105
-24 -72 -40 -105 -50 -105 -11 0 -14 7 -9 24 3 14 -4 47 -18 82 -39 96 -41
106 -20 102 10 -2 23 -21 33 -50z m241 32 c12 -12 20 -33 20 -55 0 -46 -29
-75 -74 -75 -38 0 -76 36 -76 72 0 22 18 60 34 70 22 15 76 8 96 -12z m82 -37
c3 -54 5 -58 28 -58 23 0 25 4 28 58 2 43 7 57 18 57 12 0 14 -13 12 -67 -3
-64 -5 -68 -30 -77 -18 -6 -38 -6 -55 0 -26 9 -28 13 -31 77 -2 54 0 67 12 67
11 0 16 -14 18 -57z m455 45 c4 -7 10 -41 13 -75 l5 -61 -59 1 c-44 2 -62 6
-70 20 -15 24 2 49 45 63 18 6 35 16 37 22 6 18 -19 25 -44 11 -28 -15 -42 -6
-24 16 15 18 86 20 97 3z m83 -46 c8 -28 18 -52 21 -52 4 0 13 23 20 51 12 47
31 70 45 56 3 -3 -5 -37 -17 -76 -21 -64 -26 -71 -49 -71 -23 0 -28 7 -48 68
-26 82 -27 84 -5 80 12 -2 23 -21 33 -56z m234 36 c31 -44 22 -58 -39 -58 -30
0 -55 -4 -55 -8 0 -27 61 -44 76 -21 4 7 9 8 17 0 17 -17 -12 -41 -49 -41 -44
0 -74 30 -74 73 0 51 24 77 70 77 29 0 43 -6 54 -22z m328 5 c27 -24 25 -97
-4 -117 -53 -38 -122 -5 -122 57 0 48 27 77 72 77 20 0 44 -7 54 -17z m298 -3
c27 -27 26 -77 -2 -107 -45 -49 -128 -14 -128 54 0 44 30 73 75 73 22 0 43 -8
55 -20z m164 1 c22 -24 -1 -36 -29 -15 -26 19 -32 18 -51 -11 -14 -21 -15 -31
-6 -50 12 -26 57 -35 64 -13 3 7 12 9 22 5 18 -7 18 -8 1 -27 -24 -26 -79 -26
-105 0 -12 12 -20 33 -20 55 0 22 8 43 20 55 26 26 81 26 104 1z m286 -56 c0
-60 -3 -75 -15 -75 -12 0 -15 15 -15 75 0 60 3 75 15 75 12 0 15 -15 15 -75z
m149 65 c10 -5 16 -31 19 -74 4 -61 3 -66 -16 -66 -18 0 -21 7 -24 58 -3 53
-5 57 -28 57 -23 0 -25 -4 -28 -57 -2 -43 -7 -58 -17 -58 -12 0 -15 16 -15 74
l0 73 48 1 c26 1 54 -3 61 -8z m-1739 -70 c0 -16 -4 -30 -10 -30 -5 0 -10 14
-10 30 0 17 5 30 10 30 6 0 10 -13 10 -30z m237 -42 c-3 -8 -6 -5 -6 6 -1 11
2 17 5 13 3 -3 4 -12 1 -19z m-949 -30 c-21 -63 -44 -65 -33 -4 5 26 12 36 26
36 16 0 17 -4 7 -32z m62 23 c0 -23 -24 -71 -36 -71 -7 0 -12 6 -10 13 3 6 7
24 10 40 6 24 36 40 36 18z m464 -63 c10 -39 7 -83 -5 -71 -13 13 -29 80 -21
87 11 11 20 6 26 -16z m1280 16 c13 -5 12 -12 -8 -52 -13 -26 -27 -58 -31 -72
l-7 -25 30 29 c23 22 44 30 81 34 49 4 53 3 91 -36 36 -36 40 -45 40 -90 0
-35 -6 -57 -20 -73 -11 -14 -19 -18 -20 -11 0 8 -14 0 -31 -17 -36 -37 -72
-40 -93 -9 -9 12 -16 18 -16 13 0 -6 -5 -2 -11 9 -9 14 -13 15 -19 6 -13 -20
-40 43 -40 92 0 31 -3 39 -10 28 -7 -11 -10 -2 -10 32 0 26 -5 48 -11 50 -8 3
-5 19 9 51 21 47 37 56 76 41z m439 -110 c36 -26 52 -60 51 -105 -1 -41 -29
-93 -44 -84 -5 3 -11 1 -15 -5 -4 -6 -10 -8 -15 -5 -4 3 -10 -4 -13 -15 -7
-29 -56 -26 -85 5 -13 13 -29 22 -37 19 -19 -8 -45 46 -45 95 0 42 35 95 74
112 31 13 100 4 129 -17z m-1813 -30 c21 -21 22 -27 10 -34 -10 -6 -21 -3 -35
10 -46 43 -105 14 -105 -52 0 -43 27 -78 60 -78 11 0 29 9 40 20 22 22 36 25
45 10 11 -18 -42 -60 -75 -60 -72 0 -118 55 -107 128 9 51 46 82 101 82 33 0
48 -6 66 -26z m80 -14 l0 -40 44 0 c44 0 45 0 48 37 2 27 8 39 21 41 15 3 17
-7 17 -103 0 -96 -2 -106 -17 -103 -14 2 -19 15 -21 51 l-3 47 -45 0 -44 0 0
-50 c0 -38 -4 -50 -15 -50 -12 0 -15 18 -15 105 0 87 3 105 15 105 11 0 15
-11 15 -40z m304 -52 c16 -50 30 -98 33 -106 4 -10 0 -13 -13 -10 -11 2 -24
17 -30 38 -10 30 -16 35 -47 38 -34 3 -36 1 -48 -37 -12 -39 -39 -57 -39 -27
0 15 48 174 57 189 2 4 17 7 32 7 27 0 29 -5 55 -92z m186 77 c0 -11 -12 -15
-45 -15 -41 0 -45 -2 -45 -25 0 -22 4 -25 35 -25 24 0 35 -5 35 -15 0 -10 -11
-15 -35 -15 -33 0 -35 -2 -35 -35 0 -35 0 -35 45 -35 34 0 45 -4 45 -15 0 -13
-11 -15 -62 -13 l-63 3 -3 103 -3 102 66 0 c51 0 65 -3 65 -15z m55 3 c2 -7 9
-47 16 -88 13 -82 16 -80 39 38 12 58 14 62 41 62 31 0 31 -1 49 -103 7 -37
14 -66 16 -64 2 2 9 30 14 63 17 96 20 104 35 104 19 0 18 -32 -3 -130 -15
-66 -20 -75 -41 -78 -31 -5 -36 5 -51 94 -7 41 -16 72 -19 69 -3 -4 -13 -41
-21 -83 -15 -75 -16 -77 -45 -77 -29 0 -29 2 -47 85 -9 47 -17 93 -18 103 0
19 29 24 35 5z m420 -10 c51 -45 42 -144 -16 -173 -75 -39 -159 11 -159 95 0
28 26 76 47 89 33 19 100 13 128 -11z m162 -63 l32 -80 1 83 c0 76 2 82 20 82
20 0 21 -5 18 -102 l-3 -103 -29 0 c-27 0 -31 6 -62 85 l-33 85 -3 -85 c-2
-68 -6 -85 -18 -85 -12 0 -16 19 -18 103 l-3 103 33 -3 c30 -3 34 -8 65 -83z
m-1090 43 c-3 -7 -5 -2 -5 12 0 14 2 19 5 13 2 -7 2 -19 0 -25z"/>
<path d="M3730 3910 c0 -5 5 -10 10 -10 6 0 10 5 10 10 0 6 -4 10 -10 10 -5 0
-10 -4 -10 -10z"/>
<path d="M3760 3855 c0 -8 -4 -15 -10 -15 -6 0 -10 -33 -10 -79 0 -74 2 -80
20 -78 16 1 20 8 20 34 0 17 -4 35 -10 38 -5 3 -10 15 -10 26 0 10 5 19 10 19
6 0 10 16 10 35 0 19 -4 35 -10 35 -5 0 -10 -7 -10 -15z"/>
<path d="M2414 3215 c22 -17 40 -20 32 -6 -3 5 -16 11 -28 14 -22 6 -22 5 -4
-8z"/>
<path d="M3229 2593 c0 -5 -2 -15 -4 -24 -1 -9 1 -23 6 -30 8 -12 11 -12 19 1
15 23 12 60 -5 60 -8 0 -15 -3 -16 -7z"/>
<path d="M3281 2544 c0 -11 3 -14 6 -6 3 7 2 16 -1 19 -3 4 -6 -2 -5 -13z"/>
<path d="M2733 2413 c-7 -2 -13 -11 -13 -19 0 -15 28 -18 79 -8 29 6 30 8 14
20 -18 13 -57 17 -80 7z"/>
<path d="M3310 2397 c0 -7 -15 -28 -34 -46 l-34 -33 -51 17 c-28 9 -53 21 -57
26 -4 6 -11 6 -20 -2 -8 -6 -14 -9 -14 -5 0 4 -11 -1 -24 -10 -17 -10 -43 -15
-81 -13 -32 2 -60 -2 -67 -9 -21 -21 35 -31 179 -34 116 -2 144 1 176 16 30
15 45 35 35 49 -1 1 4 12 10 24 9 17 9 22 -3 27 -8 3 -15 0 -15 -7z"/>
<path d="M2522 2061 c-44 -11 -56 -24 -47 -50 4 -14 15 -21 30 -21 33 0 36 -9
45 -110 7 -88 8 -90 53 -144 55 -63 112 -94 199 -107 146 -21 228 -6 324 57
29 19 58 32 67 28 8 -3 18 -1 22 5 3 6 -1 11 -9 11 -12 0 -11 5 5 23 47 50
130 171 127 184 -3 15 -16 23 -113 69 -57 28 -67 29 -205 30 -87 0 -153 5
-166 12 -26 14 -288 24 -332 13z m320 -102 c9 -5 32 -9 50 -9 60 0 108 -12
108 -27 0 -11 -8 -12 -35 -7 -23 4 -35 2 -35 -5 0 -6 -15 -11 -32 -10 -31 1
-31 1 -8 8 l25 8 -29 14 c-24 11 -30 11 -40 -2 -12 -16 -56 -23 -56 -8 0 5 10
9 23 9 18 0 19 2 7 10 -8 5 -34 10 -57 10 -45 0 -73 8 -73 20 0 10 129 0 152
-11z m238 -63 c0 -14 -37 -32 -46 -23 -6 6 25 37 37 37 5 0 9 -6 9 -14z m-260
-16 c0 -5 -6 -10 -14 -10 -8 0 -18 5 -21 10 -3 6 3 10 14 10 12 0 21 -4 21
-10z m-156 -25 c-4 -8 -2 -15 4 -15 5 0 12 -10 15 -21 4 -14 11 -20 21 -16 8
3 18 2 20 -2 5 -7 66 -18 149 -26 10 -1 23 -7 30 -14 6 -6 22 -11 35 -11 14 0
22 -5 19 -12 -4 -15 -194 -21 -203 -7 -3 5 -13 9 -23 9 -35 0 -105 103 -84
124 12 12 22 6 17 -9z m299 -2 c-13 -2 -33 -2 -45 0 -13 2 -3 4 22 4 25 0 35
-2 23 -4z"/>
<path d="M2660 1370 c20 -13 43 -13 35 0 -3 6 -16 10 -28 10 -18 0 -19 -2 -7
-10z"/>
<path d="M1896 737 c-12 -9 -17 -23 -14 -47 3 -31 6 -35 33 -35 40 0 58 44 30
75 -21 24 -25 24 -49 7z"/>
<path d="M2433 674 c-3 -8 -1 -20 4 -25 14 -14 43 0 43 22 0 24 -38 26 -47 3z"/>
<path d="M2740 730 c-10 -18 -8 -20 30 -20 41 0 49 7 28 28 -18 18 -46 14 -58
-8z"/>
<path d="M3076 734 c-29 -28 -17 -84 18 -84 28 0 46 18 46 46 0 22 -24 54 -40
54 -5 0 -16 -7 -24 -16z"/>
<path d="M3364 725 c-24 -37 -5 -78 34 -73 23 2 28 8 30 36 6 59 -34 82 -64
37z m49 -42 c-6 -15 -23 -18 -23 -4 0 5 3 17 6 26 5 12 9 14 14 4 5 -7 6 -18
3 -26z"/>
<path d="M3389 413 c-13 -17 -13 -17 6 -3 11 8 22 16 24 17 2 2 0 3 -6 3 -6 0
-17 -8 -24 -17z"/>
<path d="M3551 414 c12 -15 11 -16 -8 -10 -13 4 -30 3 -39 -2 -14 -8 -10 -10
19 -14 25 -3 38 0 42 10 6 16 -2 32 -17 32 -6 0 -5 -7 3 -16z"/>
<path d="M3405 400 c-4 -6 7 -10 25 -10 18 0 29 4 25 10 -3 6 -15 10 -25 10
-10 0 -22 -4 -25 -10z"/>
<path d="M3453 315 c1 -23 7 -30 22 -30 11 0 21 8 23 18 2 11 -3 17 -16 17
-11 0 -23 6 -26 13 -3 6 -4 -1 -3 -18z"/>
<path d="M3681 416 c-9 -11 -8 -15 5 -20 27 -10 66 -7 58 5 -3 6 -17 9 -30 6
-25 -4 -33 8 -11 16 7 4 8 6 1 6 -6 1 -17 -5 -23 -13z"/>
<path d="M3841 414 c12 -15 11 -16 -6 -11 -11 4 -26 3 -34 -2 -9 -6 -4 -10 18
-13 20 -3 32 0 36 10 6 16 -2 32 -17 32 -6 0 -5 -7 3 -16z"/>
<path d="M3740 317 c0 -32 23 -45 45 -27 23 19 19 39 -6 33 -12 -4 -25 0 -30
8 -6 10 -9 6 -9 -14z"/>
<path d="M2343 420 c-11 -39 -8 -50 12 -50 23 0 26 17 12 52 l-14 33 -10 -35z"/>
<path d="M2956 428 c-52 -74 32 -170 94 -108 45 45 15 130 -45 130 -24 0 -39
-7 -49 -22z"/>
<path d="M1452 5348 c-17 -17 -15 -33 9 -79 11 -23 18 -43 16 -46 -3 -2 -23 5
-46 16 -50 26 -63 26 -78 2 -10 -16 -4 -27 45 -80 31 -34 63 -61 70 -61 21 0
13 32 -15 58 -32 30 -16 43 22 18 55 -36 78 -10 45 53 -23 46 -15 53 20 16 25
-27 50 -33 50 -12 0 12 -109 127 -121 127 -3 0 -10 -5 -17 -12z"/>
<path d="M5185 5294 c-18 -18 -19 -40 -4 -83 6 -18 9 -34 7 -37 -3 -2 -24 6
-47 18 l-42 23 -20 -24 -19 -23 42 -52 c23 -28 45 -55 49 -60 4 -5 15 -6 24
-2 15 5 14 10 -5 42 -28 44 -20 53 21 23 31 -22 32 -22 46 -3 7 10 11 25 8 32
-3 8 -8 26 -11 40 l-7 27 30 -28 c26 -24 32 -26 42 -13 11 13 5 25 -31 70 -50
64 -62 71 -83 50z"/>
<path d="M1295 5180 c-11 -18 109 -145 127 -134 17 11 6 31 -46 87 -54 57 -69
66 -81 47z"/>
<path d="M1223 5100 c-18 -21 -33 -45 -33 -53 0 -16 103 -117 119 -117 16 0
13 31 -5 51 -14 16 -14 19 0 42 14 20 14 26 3 36 -11 9 -17 8 -27 -4 -12 -15
-40 -21 -40 -9 0 3 11 19 25 36 14 16 25 36 25 44 0 27 -35 14 -67 -26z"/>
<path d="M5010 5123 c0 -26 82 -123 103 -123 27 0 20 24 -23 76 -22 27 -40 52
-40 56 0 5 -9 8 -20 8 -12 0 -20 -7 -20 -17z"/>
<path d="M4931 5046 l-44 -45 41 -49 c59 -70 70 -78 78 -57 4 9 1 27 -6 41
-11 19 -11 27 -2 36 17 17 15 48 -3 48 -8 0 -15 -4 -15 -10 0 -5 -7 -10 -16
-10 -13 0 -11 7 10 35 24 32 27 55 7 55 -4 0 -26 -20 -50 -44z"/>
<path d="M1107 4973 c-12 -12 -7 -33 25 -108 35 -80 58 -97 58 -42 0 40 25 67
63 67 51 0 29 27 -47 59 -79 33 -89 35 -99 24z m68 -61 c0 -18 -20 -15 -23 4
-3 10 1 15 10 12 7 -3 13 -10 13 -16z"/>
<path d="M4801 4922 c-7 -13 -3 -41 16 -101 27 -85 46 -100 51 -40 4 41 28 70
56 68 71 -5 59 20 -27 59 -84 38 -83 38 -96 14z m69 -52 c0 -5 -7 -10 -15 -10
-8 0 -15 5 -15 10 0 6 7 10 15 10 8 0 15 -4 15 -10z"/>
<path d="M980 4834 c-22 -20 -40 -42 -40 -49 0 -6 27 -38 61 -70 44 -42 63
-55 71 -47 9 9 7 16 -5 30 -9 10 -17 27 -17 37 0 15 6 17 50 11 40 -5 50 -4
50 8 0 7 -11 17 -24 20 -15 4 -32 21 -43 43 -28 56 -55 60 -103 17z m60 -33
c0 -26 -27 -48 -42 -33 -9 9 -7 17 7 32 23 25 35 26 35 1z"/>
<path d="M4651 4779 l-33 -40 50 -57 c62 -71 72 -71 60 3 -3 18 2 20 45 17 38
-2 47 0 47 13 0 9 -9 19 -20 22 -11 3 -23 17 -26 32 -10 39 -23 51 -59 51 -25
0 -38 -8 -64 -41z m59 -34 c-7 -8 -16 -15 -21 -15 -15 0 -10 22 9 36 20 15 29
0 12 -21z"/>
<path d="M866 4704 l-39 -46 54 -54 c29 -30 61 -54 70 -54 19 0 79 67 79 87 0
21 -22 15 -52 -14 -19 -19 -31 -24 -38 -17 -8 8 -6 15 5 24 8 7 15 19 15 26 0
16 -36 19 -45 4 -3 -5 -10 -10 -16 -10 -16 0 -10 23 12 46 20 21 21 54 1 54
-4 0 -25 -21 -46 -46z"/>
<path d="M4540 4671 c-22 -21 -40 -43 -40 -47 1 -5 23 -33 50 -63 l49 -53 45
38 c44 37 61 74 33 74 -7 0 -26 -14 -42 -30 -33 -35 -62 -25 -30 10 23 25 6
52 -19 31 -31 -26 -36 -5 -7 28 28 32 32 51 10 51 -5 0 -27 -17 -49 -39z"/>
<path d="M755 4584 c-29 -31 -32 -56 -9 -78 20 -20 37 -20 80 0 19 9 37 14 41
11 11 -12 -7 -37 -25 -37 -23 0 -46 -25 -37 -40 13 -20 53 -10 79 21 59 70 8
128 -73 82 -16 -10 -33 -14 -37 -11 -10 11 14 35 42 42 32 8 26 30 -9 34 -19
2 -34 -5 -52 -24z"/>
<path d="M674 4490 c-24 -10 -54 -66 -47 -89 14 -40 51 -45 100 -14 15 10 23
11 28 3 9 -14 -13 -40 -35 -40 -24 0 -32 -11 -19 -27 18 -21 43 -15 72 15 62
65 5 117 -85 77 -13 -5 -18 -3 -18 9 0 8 11 18 25 22 15 4 25 13 25 24 0 22
-18 30 -46 20z"/>
<path d="M512 4317 c-18 -18 -32 -40 -32 -49 0 -16 100 -108 117 -108 16 0 73
65 73 83 0 24 -13 21 -40 -8 -25 -27 -50 -33 -50 -12 0 7 5 18 12 25 9 9 9 15
0 24 -9 9 -16 7 -31 -6 -30 -27 -38 1 -8 32 24 27 26 52 3 52 -7 0 -26 -15
-44 -33z"/>
<path d="M386 4171 c-11 -16 4 -37 59 -85 l54 -46 35 37 c20 21 36 44 36 51 0
19 -25 14 -45 -8 -25 -28 -36 -25 -80 20 -40 41 -50 46 -59 31z"/>
<path d="M4974 3395 l-37 -35 44 -47 c23 -27 48 -51 55 -56 16 -9 27 8 19 32
-4 13 2 23 20 35 48 32 22 106 -38 106 -16 0 -40 -13 -63 -35z m84 -27 c-4
-31 -58 -40 -58 -10 0 25 8 32 37 32 20 0 24 -5 21 -22z"/>
<path d="M1238 3119 c-10 -5 -18 -21 -18 -34 0 -31 26 -46 57 -32 27 12 46 0
20 -14 -9 -6 -17 -14 -17 -19 0 -18 37 -10 56 11 26 29 8 54 -40 53 -20 -1
-36 3 -36 7 0 5 5 9 10 9 6 0 10 7 10 15 0 17 -17 19 -42 4z"/>
<path d="M1120 2996 c-6 -8 -10 -30 -9 -48 4 -38 -6 -58 -27 -58 -11 0 -12 4
-4 19 20 39 -10 32 -50 -11 -22 -24 -47 -51 -56 -60 -16 -16 -16 -19 0 -42 9
-14 16 -38 15 -53 l-1 -28 -9 31 c-17 58 -89 44 -89 -17 0 -26 -3 -29 -25 -23
-29 7 -35 -15 -10 -36 14 -12 21 -50 10 -50 -4 0 -20 7 -37 16 -23 12 -33 13
-42 4 -8 -8 -7 -14 7 -21 11 -7 17 -21 16 -42 -1 -21 -3 -25 -6 -12 -17 70
-83 56 -87 -17 -2 -30 -4 -33 -29 -30 -32 4 -35 -10 -7 -38 19 -19 27 -50 13
-50 -4 0 -20 12 -35 27 -41 39 -59 17 -22 -26 34 -40 19 -64 -16 -26 -28 30
-55 32 -70 6 -11 -22 0 -34 22 -26 8 3 25 -6 38 -20 13 -14 29 -25 37 -25 7 0
31 18 54 40 34 32 40 44 37 72 -3 32 -2 33 30 30 42 -4 59 10 73 60 8 33 14
39 30 35 29 -8 51 20 44 54 -6 28 -5 29 29 29 24 0 42 7 54 20 9 11 27 31 40
45 l24 24 -22 29 c-33 44 -24 66 28 70 46 3 51 -2 25 -30 -21 -24 -11 -33 19
-17 29 15 38 28 38 57 0 17 6 22 24 22 40 0 83 70 59 94 -4 4 -16 -3 -26 -16
-10 -13 -17 -16 -14 -8 2 8 1 25 -4 38 -10 26 -50 30 -69 8z m40 -36 c0 -5 -4
-10 -10 -10 -5 0 -10 5 -10 10 0 6 5 10 10 10 6 0 10 -4 10 -10z m-219 -233
c-13 -13 -26 -3 -16 12 3 6 11 8 17 5 6 -4 6 -10 -1 -17z m-171 -166 c0 -6 -4
-13 -10 -16 -5 -3 -10 1 -10 9 0 9 5 16 10 16 6 0 10 -4 10 -9z"/>
<path d="M5673 2567 c-23 -17 -42 -36 -42 -42 0 -5 18 -29 40 -53 33 -35 46
-42 65 -38 19 5 24 13 24 38 0 25 -3 29 -12 20 -19 -19 -33 -14 -15 6 10 10
17 24 17 30 0 16 -37 15 -43 0 -2 -7 -8 -9 -13 -5 -5 5 3 19 20 32 16 12 25
28 22 34 -10 16 -17 14 -63 -22z"/>
<path d="M5530 2435 c0 -20 68 -95 86 -95 8 0 31 15 52 34 29 28 34 37 25 47
-10 10 -17 8 -36 -9 -30 -29 -38 -28 -72 8 -31 32 -55 39 -55 15z"/>
<path d="M1516 1894 c-17 -12 -17 -14 -4 -14 9 0 20 5 23 11 11 17 2 18 -19 3z"/>
<path d="M4831 1841 c-10 -7 -12 -20 -7 -51 6 -38 5 -42 -11 -35 -34 15 -77
11 -81 -7 -5 -24 72 -102 93 -94 12 4 14 10 5 25 -15 29 -13 33 11 21 33 -18
52 -5 45 30 -5 28 -4 30 14 20 54 -29 53 1 -2 57 -46 47 -46 47 -67 34z"/>
<path d="M5746 48 c-5 -10 -16 -18 -26 -18 -10 0 -23 -7 -30 -15 -11 -13 -8
-15 16 -15 40 0 56 13 52 41 -4 21 -6 22 -12 7z"/>
</g>
</svg>
